<?xml version="1.0" encoding="utf-8"?>
<!-- Generator: Adobe Illustrator 19.0.0, SVG Export Plug-In . SVG Version: 6.00 Build 0)  -->
<svg version="1.1" id="p2" xmlns="http://www.w3.org/2000/svg" xmlns:xlink="http://www.w3.org/1999/xlink" x="0px" y="0px"
	 viewBox="-151.6 546.2 457 247.7" style="enable-background:new -151.6 546.2 457 247.7;" xml:space="preserve">
<style type="text/css">
	.st0{fill:none;}
	.st1{fill:#1F3A53;}
</style>
<rect x="-250" y="448" class="st0" width="653.4" height="451.3"/>
<g>
	<g>
		<circle class="st1" cx="-123.1" cy="614.7" r="8.5"/>
		<circle class="st1" cx="-23.1" cy="594.7" r="8.5"/>
		<circle class="st1" cx="56.9" cy="614.7" r="8.5"/>
		<circle class="st1" cx="16.9" cy="594.7" r="8.5"/>
		<circle class="st1" cx="56.9" cy="654.7" r="8.5"/>
		<circle class="st1" cx="116.9" cy="674.7" r="8.5"/>
		<circle class="st1" cx="176.9" cy="694.7" r="8.5"/>
		<circle class="st1" cx="-3.1" cy="614.7" r="8.5"/>
		<circle class="st1" cx="-3.1" cy="654.7" r="8.5"/>
		<circle class="st1" cx="-103.1" cy="634.7" r="8.5"/>
		<circle class="st1" cx="-83.1" cy="694.7" r="8.5"/>
		<circle class="st1" cx="-123.1" cy="674.7" r="8.5"/>
		<circle class="st1" cx="-23.1" cy="674.7" r="8.5"/>
		<circle class="st1" cx="256.9" cy="734.7" r="8.5"/>
		<circle class="st1" cx="-103.1" cy="734.7" r="8.5"/>
		<circle class="st1" cx="96.9" cy="654.7" r="8.5"/>
		<circle class="st1" cx="116.9" cy="574.7" r="8.5"/>
		<circle class="st1" cx="76.9" cy="714.7" r="8.5"/>
		<circle class="st1" cx="196.9" cy="654.7" r="8.5"/>
		<circle class="st1" cx="216.9" cy="594.7" r="8.5"/>
		<circle class="st1" cx="256.9" cy="634.7" r="8.5"/>
		<circle class="st1" cx="236.9" cy="694.7" r="8.5"/>
		<circle class="st1" cx="-103.1" cy="574.7" r="8.5"/>
		<circle class="st1" cx="-43.1" cy="554.7" r="8.5"/>
	</g>
	<g>
		<circle class="st1" cx="-123.1" cy="634.7" r="8.5"/>
		<circle class="st1" cx="-23.1" cy="634.7" r="8.5"/>
		<circle class="st1" cx="-23.1" cy="654.7" r="8.5"/>
		<circle class="st1" cx="36.9" cy="614.7" r="8.5"/>
		<circle class="st1" cx="96.9" cy="554.7" r="8.5"/>
		<circle class="st1" cx="116.9" cy="654.7" r="8.5"/>
		<circle class="st1" cx="116.9" cy="714.7" r="8.5"/>
		<circle class="st1" cx="296.9" cy="714.7" r="8.5"/>
		<circle class="st1" cx="276.9" cy="694.7" r="8.5"/>
		<circle class="st1" cx="-83.1" cy="674.7" r="8.5"/>
		<circle class="st1" cx="56.9" cy="714.7" r="8.5"/>
		<circle class="st1" cx="-23.1" cy="734.7" r="8.5"/>
		<circle class="st1" cx="276.9" cy="594.7" r="8.5"/>
		<circle class="st1" cx="216.9" cy="634.7" r="8.5"/>
		<circle class="st1" cx="116.9" cy="594.7" r="8.5"/>
		<circle class="st1" cx="76.9" cy="634.7" r="8.5"/>
		<circle class="st1" cx="56.9" cy="574.7" r="8.5"/>
		<circle class="st1" cx="196.9" cy="674.7" r="8.5"/>
		<circle class="st1" cx="236.9" cy="674.7" r="8.5"/>
		<circle class="st1" cx="196.9" cy="614.7" r="8.5"/>
		<circle class="st1" cx="216.9" cy="574.7" r="8.5"/>
		<circle class="st1" cx="236.9" cy="594.7" r="8.5"/>
		<circle class="st1" cx="236.9" cy="614.7" r="8.5"/>
		<circle class="st1" cx="256.9" cy="654.7" r="8.5"/>
		<circle class="st1" cx="-123.1" cy="574.7" r="8.5"/>
		<circle class="st1" cx="-83.1" cy="714.7" r="8.5"/>
		<circle class="st1" cx="-43.1" cy="694.7" r="8.5"/>
	</g>
	<g>
		<circle class="st1" cx="-143.1" cy="594.7" r="8.5"/>
		<circle class="st1" cx="-123.1" cy="654.7" r="8.5"/>
		<circle class="st1" cx="-43.1" cy="614.7" r="8.5"/>
		<circle class="st1" cx="36.9" cy="634.7" r="8.5"/>
		<circle class="st1" cx="36.9" cy="594.7" r="8.5"/>
		<circle class="st1" cx="56.9" cy="634.7" r="8.5"/>
		<circle class="st1" cx="116.9" cy="694.7" r="8.5"/>
		<circle class="st1" cx="56.9" cy="594.7" r="8.5"/>
		<circle class="st1" cx="216.9" cy="614.7" r="8.5"/>
		<circle class="st1" cx="176.9" cy="674.7" r="8.5"/>
		<circle class="st1" cx="176.9" cy="714.7" r="8.5"/>
		<circle class="st1" cx="296.9" cy="694.7" r="8.5"/>
		<circle class="st1" cx="276.9" cy="674.7" r="8.5"/>
		<circle class="st1" cx="276.9" cy="654.7" r="8.5"/>
		<circle class="st1" cx="296.9" cy="614.7" r="8.5"/>
		<circle class="st1" cx="276.9" cy="714.7" r="8.5"/>
		<circle class="st1" cx="-3.1" cy="634.7" r="8.5"/>
		<circle class="st1" cx="-3.1" cy="594.7" r="8.5"/>
		<circle class="st1" cx="-103.1" cy="614.7" r="8.5"/>
		<circle class="st1" cx="-103.1" cy="594.7" r="8.5"/>
		<circle class="st1" cx="-103.1" cy="654.7" r="8.5"/>
		<circle class="st1" cx="-103.1" cy="694.7" r="8.5"/>
		<circle class="st1" cx="-3.1" cy="674.7" r="8.5"/>
		<circle class="st1" cx="36.9" cy="694.7" r="8.5"/>
		<circle class="st1" cx="96.9" cy="714.7" r="8.5"/>
		<circle class="st1" cx="116.9" cy="734.7" r="8.5"/>
		<circle class="st1" cx="56.9" cy="694.7" r="8.5"/>
		<circle class="st1" cx="36.9" cy="694.7" r="8.5"/>
		<circle class="st1" cx="16.9" cy="714.7" r="8.5"/>
		<circle class="st1" cx="96.9" cy="634.7" r="8.5"/>
		<circle class="st1" cx="136.9" cy="674.7" r="8.5"/>
		<circle class="st1" cx="136.9" cy="694.7" r="8.5"/>
		<circle class="st1" cx="136.9" cy="594.7" r="8.5"/>
		<circle class="st1" cx="156.9" cy="554.7" r="8.5"/>
		<circle class="st1" cx="96.9" cy="574.7" r="8.5"/>
		<circle class="st1" cx="76.9" cy="654.7" r="8.5"/>
		<circle class="st1" cx="76.9" cy="574.7" r="8.5"/>
		<circle class="st1" cx="216.9" cy="674.7" r="8.5"/>
		<circle class="st1" cx="256.9" cy="674.7" r="8.5"/>
		<circle class="st1" cx="156.9" cy="634.7" r="8.5"/>
		<circle class="st1" cx="196.9" cy="634.7" r="8.5"/>
		<circle class="st1" cx="236.9" cy="574.7" r="8.5"/>
		<circle class="st1" cx="196.9" cy="574.7" r="8.5"/>
		<circle class="st1" cx="256.9" cy="614.7" r="8.5"/>
		<circle class="st1" cx="196.9" cy="694.7" r="8.5"/>
		<circle class="st1" cx="156.9" cy="714.7" r="8.5"/>
		<circle class="st1" cx="-3.1" cy="574.7" r="8.5"/>
		<circle class="st1" cx="-23.1" cy="574.7" r="8.5"/>
		<circle class="st1" cx="-143.1" cy="554.7" r="8.5"/>
		<circle class="st1" cx="276.9" cy="554.7" r="8.5"/>
		<circle class="st1" cx="-23.1" cy="694.7" r="8.5"/>
		<circle class="st1" cx="-143.1" cy="714.7" r="8.5"/>
		<circle class="st1" cx="-43.1" cy="714.7" r="8.5"/>
		<circle class="st1" cx="-63.1" cy="694.7" r="8.5"/>
		<circle class="st1" cx="-63.1" cy="714.7" r="8.5"/>
	</g>
	<g>
		<path class="st1" d="M173.3,788.8c0,2.8-2.3,5.1-5.1,5.1c-2.8,0-5.1-2.3-5.1-5.1c0-2.8,2.3-5.1,5.1-5.1
			C171,783.6,173.3,785.9,173.3,788.8"/>
		<path class="st1" d="M168.2,794.6c-3.2,0-5.9-2.6-5.9-5.9c0-3.2,2.6-5.9,5.9-5.9c3.2,0,5.9,2.6,5.9,5.9
			C174.1,792,171.5,794.6,168.2,794.6z M168.2,784.4c-2.4,0-4.4,2-4.4,4.4s2,4.4,4.4,4.4s4.4-2,4.4-4.4
			C172.6,786.3,170.6,784.4,168.2,784.4z"/>
	</g>
	<g>
		<path class="st1" d="M-108.5,790.7l-11.5-27.1c-0.2-0.4-0.3-0.8-0.3-1.4c0-1.5,1.3-2.8,2.9-2.8c1.5,0,2.5,0.8,3,2.1l9.4,23.7
			l9.6-23.9c0.4-1,1.4-1.9,2.8-1.9c1.6,0,2.9,1.2,2.9,2.8c0,0.4-0.1,0.9-0.3,1.2l-11.6,27.2c-0.6,1.5-1.7,2.3-3.3,2.3h-0.3
			C-106.8,793-107.9,792.1-108.5,790.7z"/>
		<path class="st1" d="M-86.7,761.1c0-1.7,1.4-2.8,3.2-2.8s3.2,1.1,3.2,2.8v0.3c0,1.7-1.4,2.8-3.2,2.8s-3.2-1.1-3.2-2.8V761.1z
			 M-86.3,770.3c0-1.6,1.2-2.9,2.8-2.9s2.9,1.3,2.9,2.9v19.6c0,1.6-1.3,2.8-2.9,2.8s-2.8-1.2-2.8-2.8V770.3z"/>
		<path class="st1" d="M-75.5,790.1c-0.6-0.3-1.1-1-1.1-2c0-1.3,1-2.3,2.3-2.3c0.5,0,0.9,0.1,1.2,0.3c2.4,1.6,4.9,2.4,7.1,2.4
			c2.4,0,3.9-1,3.9-2.7v-0.1c0-1.9-2.6-2.6-5.5-3.5c-3.7-1-7.8-2.5-7.8-7.3v-0.1c0-4.7,3.9-7.6,8.8-7.6c2.6,0,5.4,0.8,7.8,2
			c0.8,0.4,1.4,1.2,1.4,2.2c0,1.3-1,2.3-2.3,2.3c-0.5,0-0.8-0.1-1.1-0.3c-2-1-4.1-1.7-5.8-1.7c-2.2,0-3.5,1-3.5,2.4v0.1
			c0,1.8,2.7,2.6,5.6,3.5c3.6,1.1,7.7,2.8,7.7,7.2v0.1c0,5.2-4,7.8-9.2,7.8C-69.2,793-72.7,792-75.5,790.1z"/>
		<path class="st1" d="M-52.6,761.1c0-1.7,1.4-2.8,3.2-2.8c1.8,0,3.2,1.1,3.2,2.8v0.3c0,1.7-1.4,2.8-3.2,2.8c-1.8,0-3.2-1.1-3.2-2.8
			V761.1z M-52.1,770.3c0-1.6,1.2-2.9,2.8-2.9c1.6,0,2.9,1.3,2.9,2.9v19.6c0,1.6-1.3,2.8-2.9,2.8c-1.6,0-2.8-1.2-2.8-2.8V770.3z"/>
		<path class="st1" d="M-39.3,785.7v-13.1h-0.9c-1.4,0-2.4-1.1-2.4-2.4c0-1.4,1.1-2.4,2.4-2.4h0.9v-4.2c0-1.5,1.3-2.8,2.9-2.8
			s2.8,1.3,2.8,2.8v4.2h4.5c1.4,0,2.5,1.1,2.5,2.4c0,1.4-1.1,2.4-2.5,2.4h-4.5v12.2c0,2.2,1.1,3.1,3.1,3.1c0.7,0,1.2-0.1,1.4-0.1
			c1.3,0,2.4,1,2.4,2.3c0,1-0.7,1.9-1.5,2.2c-1.2,0.4-2.4,0.7-3.9,0.7C-36.3,793-39.3,791.1-39.3,785.7z"/>
		<path class="st1" d="M-13.8,765h-8c-1.5,0-2.7-1.2-2.7-2.7s1.2-2.7,2.7-2.7H0c1.5,0,2.6,1.2,2.6,2.7S1.4,765,0,765h-8v24.9
			c0,1.6-1.3,2.9-2.9,2.9s-2.9-1.3-2.9-2.9L-13.8,765L-13.8,765z"/>
		<path class="st1" d="M6,760.8c0-1.5,1.2-2.8,2.8-2.8s2.9,1.3,2.9,2.8v10.7c1.6-2.3,3.9-4.3,7.8-4.3c5.6,0,8.8,3.8,8.8,9.5v13.2
			c0,1.6-1.2,2.8-2.8,2.8s-2.9-1.2-2.9-2.8v-11.5c0-3.9-1.9-6.1-5.3-6.1c-3.3,0-5.6,2.3-5.6,6.2v11.4c0,1.6-1.3,2.8-2.9,2.8
			S6,791.5,6,789.9V760.8z"/>
		<path class="st1" d="M45.1,793.1c-7.2,0-12.7-5.2-12.7-12.9v-0.1c0-7.1,5-12.9,12.1-12.9c7.9,0,11.8,6.5,11.8,12.2
			c0,1.6-1.2,2.7-2.7,2.7H38c0.6,4,3.5,6.3,7.1,6.3c2.4,0,4.3-0.8,5.9-2.2c0.4-0.3,0.8-0.5,1.5-0.5c1.3,0,2.3,1,2.3,2.3
			c0,0.7-0.3,1.3-0.8,1.7C51.8,791.8,49,793.1,45.1,793.1z M50.7,778.4c-0.4-3.7-2.5-6.5-6.3-6.5c-3.5,0-5.9,2.7-6.4,6.5H50.7z"/>
		<path class="st1" d="M60.8,778.6v-16.3c0-1.6,1.3-2.9,2.9-2.9c1.6,0,2.9,1.3,2.9,2.9v16.1c0,6.1,3.1,9.3,8.3,9.3
			c5.1,0,8.3-3.1,8.3-9.1v-16.3c0-1.6,1.3-2.9,2.9-2.9c1.6,0,2.9,1.3,2.9,2.9v16c0,9.8-5.5,14.8-14.1,14.8
			C66.3,793.1,60.8,788.1,60.8,778.6z"/>
		<path class="st1" d="M94.7,788.9c-0.7-0.5-1.1-1.3-1.1-2.2c0-1.5,1.2-2.7,2.7-2.7c0.8,0,1.3,0.2,1.7,0.5c2.7,2.2,5.6,3.4,9.2,3.4
			c3.6,0,5.8-1.7,5.8-4.1v-0.1c0-2.3-1.3-3.6-7.4-5c-7-1.7-10.9-3.8-10.9-9.8v-0.1c0-5.6,4.7-9.5,11.2-9.5c4.1,0,7.5,1.1,10.4,3.1
			c0.7,0.4,1.3,1.2,1.3,2.3c0,1.5-1.2,2.7-2.7,2.7c-0.6,0-1-0.1-1.5-0.4c-2.5-1.6-5-2.5-7.6-2.5c-3.4,0-5.4,1.7-5.4,3.9v0.1
			c0,2.5,1.5,3.7,7.8,5.2c7,1.7,10.5,4.2,10.5,9.6v0.1c0,6.2-4.8,9.8-11.7,9.8C102.6,793,98.3,791.6,94.7,788.9z"/>
		<path class="st1" d="M121.9,788.8l12.2-27.2c0.7-1.5,1.8-2.3,3.5-2.3h0.3c1.6,0,2.8,0.9,3.4,2.3l12.2,27.2
			c0.2,0.4,0.3,0.8,0.3,1.2c0,1.6-1.2,2.8-2.7,2.8c-1.4,0-2.3-0.8-2.8-2l-2.7-6.2h-16l-2.8,6.3c-0.5,1.2-1.5,1.8-2.7,1.8
			c-1.5,0-2.7-1.2-2.7-2.7C121.5,789.7,121.7,789.3,121.9,788.8z M143.4,779.5l-5.8-13.3l-5.8,13.3H143.4z"/>
		<path class="st1" d="M182,780.3L182,780.3c0-7.1,5.4-13.1,12.9-13.1c3.9,0,6.6,1.3,8.7,3.1c0.4,0.3,0.9,1,0.9,2
			c0,1.5-1.2,2.6-2.6,2.6c-0.7,0-1.3-0.3-1.7-0.6c-1.5-1.2-3.1-2.1-5.3-2.1c-4.1,0-7.2,3.6-7.2,7.9v0.1c0,4.4,3.1,7.9,7.4,7.9
			c2.3,0,4-0.9,5.5-2.2c0.3-0.3,0.9-0.6,1.5-0.6c1.4,0,2.4,1.1,2.4,2.5c0,0.8-0.3,1.4-0.8,1.8c-2.2,2.1-4.9,3.5-9,3.5
			C187.5,793.1,182,787.3,182,780.3z"/>
		<path class="st1" d="M206.7,780.3L206.7,780.3c0-7.2,5.6-13.1,13.2-13.1s13.2,5.8,13.2,12.9v0.1c0,7-5.6,12.9-13.3,12.9
			C212.3,793.1,206.7,787.3,206.7,780.3z M227.5,780.3L227.5,780.3c0-4.5-3.1-8.1-7.6-8.1c-4.6,0-7.5,3.6-7.5,7.9v0.1
			c0,4.3,3.1,7.9,7.6,7.9C224.6,788.1,227.5,784.6,227.5,780.3z"/>
		<path class="st1" d="M237.6,770.3c0-1.6,1.2-2.9,2.8-2.9c1.6,0,2.9,1.3,2.9,2.9v1.2c1.6-2.2,3.8-4.3,7.6-4.3
			c3.6,0,6.1,1.7,7.4,4.4c2-2.6,4.6-4.4,8.4-4.4c5.4,0,8.7,3.4,8.7,9.5v13.2c0,1.6-1.2,2.8-2.8,2.8c-1.6,0-2.9-1.2-2.9-2.8v-11.5
			c0-3.9-1.8-6.1-5-6.1c-3.1,0-5.3,2.2-5.3,6.2v11.4c0,1.6-1.3,2.8-2.8,2.8c-1.6,0-2.9-1.2-2.9-2.8v-11.6c0-3.9-1.9-6-5-6
			s-5.3,2.3-5.3,6.2v11.4c0,1.6-1.3,2.8-2.9,2.8s-2.8-1.2-2.8-2.8v-19.6L237.6,770.3L237.6,770.3z"/>
	</g>
</g>
</svg>
